<?xml version="1.0" standalone="no"?>
<!DOCTYPE svg PUBLIC "-//W3C//DTD SVG 20010904//EN"
 "http://www.w3.org/TR/2001/REC-SVG-20010904/DTD/svg10.dtd">
<svg version="1.0" xmlns="http://www.w3.org/2000/svg"
 width="3200.000000pt" height="3200.000000pt" viewBox="0 0 3200.000000 3200.000000"
 preserveAspectRatio="xMidYMid meet">
<metadata>
Created by potrace 1.14, written by Peter Selinger 2001-2017
</metadata>
<g transform="translate(0.000000,3200.000000) scale(0.100000,-0.100000)"
fill="#000000" stroke="none">
<path d="M2657 18624 c-1 -1 -42 -5 -92 -9 -118 -9 -152 -13 -242 -29 -18 -3
-47 -8 -65 -11 -17 -3 -34 -7 -37 -9 -3 -2 -22 -7 -41 -10 -19 -3 -50 -10 -68
-15 -18 -5 -35 -10 -37 -10 -3 -1 -7 -2 -10 -2 -3 -1 -8 -2 -12 -3 -31 -7
-220 -69 -228 -75 -5 -4 -32 -16 -60 -26 -133 -48 -405 -204 -551 -318 -31
-23 -120 -105 -198 -182 -261 -256 -433 -521 -566 -870 -6 -16 -11 -31 -11
-32 0 -2 -8 -23 -19 -48 -11 -25 -17 -45 -14 -45 2 0 0 -8 -5 -19 -11 -19 -71
-250 -76 -286 -1 -11 -5 -29 -8 -40 -3 -11 -9 -42 -12 -70 -4 -27 -9 -66 -12
-85 -19 -142 -24 -219 -26 -415 -2 -99 0 -207 4 -240 4 -33 10 -87 13 -120 8
-71 19 -142 41 -252 28 -138 91 -337 152 -483 41 -96 127 -271 146 -295 22
-29 87 -137 87 -145 0 -6 4 -10 8 -10 4 0 16 -13 25 -30 10 -16 23 -35 30 -42
7 -7 32 -40 57 -73 25 -32 59 -73 75 -91 17 -17 51 -53 76 -80 79 -83 185
-178 259 -234 18 -14 38 -30 44 -35 55 -53 384 -240 521 -297 76 -32 180 -70
230 -85 28 -7 59 -18 70 -22 19 -8 176 -47 220 -55 11 -2 38 -7 60 -11 46 -9
62 -11 125 -19 25 -4 56 -8 69 -11 129 -25 653 -24 766 1 11 2 36 6 55 9 36 4
139 22 175 29 92 19 174 39 195 46 14 5 36 11 50 14 34 6 220 71 304 107 37
16 74 29 82 29 8 0 14 5 14 10 0 6 4 10 9 10 36 0 322 156 461 251 116 79 142
105 175 174 35 75 38 166 7 236 -16 37 -101 185 -172 299 -5 8 -27 45 -49 81
-33 55 -107 132 -130 135 -3 0 -19 7 -36 14 -16 8 -64 14 -105 14 -85 1 -89
-1 -295 -121 -177 -103 -464 -219 -610 -247 -221 -42 -257 -46 -425 -46 -158
0 -242 10 -400 47 -36 8 -69 19 -74 24 -6 5 -20 9 -31 9 -12 0 -36 7 -54 16
-17 9 -37 17 -44 18 -22 4 -131 59 -185 93 -29 18 -55 33 -58 33 -13 0 -172
130 -221 181 -80 82 -109 116 -162 193 -74 107 -97 150 -164 306 -35 80 -95
308 -100 380 -3 41 15 89 36 96 12 4 722 8 1577 9 1160 1 1562 4 1583 13 15 6
27 9 27 6 0 -3 28 10 61 27 110 59 178 146 198 252 9 49 7 302 -3 397 -3 30
-8 75 -10 100 -3 25 -7 54 -9 65 -3 11 -8 40 -11 65 -6 47 -12 77 -21 120 -4
14 -8 36 -11 50 -12 68 -88 307 -130 410 -35 83 -150 310 -163 320 -4 3 -22
30 -41 60 -19 30 -37 57 -40 60 -3 3 -17 21 -30 40 -68 98 -215 250 -333 345
-73 59 -287 201 -317 210 -3 1 -45 21 -95 45 -77 36 -286 112 -346 126 -10 2
-27 6 -36 8 -90 22 -203 43 -283 52 -25 3 -63 7 -85 10 -41 5 -413 12 -418 8z
m298 -978 c17 -3 40 -8 53 -11 12 -3 31 -7 43 -10 41 -9 65 -17 134 -48 39
-18 72 -35 73 -39 2 -5 8 -8 13 -8 39 0 226 -171 295 -270 69 -98 141 -261
166 -375 26 -118 30 -227 10 -247 -10 -10 -216 -13 -1063 -13 -1039 0 -1051 0
-1065 20 -18 24 -14 72 12 140 4 11 8 25 10 32 13 63 93 222 167 333 46 69
237 270 257 270 5 0 21 11 37 24 55 46 256 142 338 161 122 28 161 35 225 41
41 3 76 7 78 9 5 4 186 -3 217 -9z"/>
<path d="M13207 18624 c-1 -1 -40 -5 -87 -9 -138 -11 -162 -13 -220 -25 -78
-15 -112 -21 -135 -25 -11 -1 -51 -10 -90 -20 -38 -9 -77 -18 -85 -20 -35 -7
-248 -78 -285 -95 -22 -9 -51 -21 -65 -25 -97 -29 -422 -210 -541 -300 -33
-25 -63 -45 -68 -45 -5 0 -11 -3 -13 -8 -1 -4 -30 -29 -63 -56 -60 -50 -276
-263 -327 -323 -16 -18 -28 -37 -28 -43 0 -5 -4 -10 -9 -10 -14 0 -147 -188
-208 -295 -81 -140 -186 -372 -220 -488 -8 -29 -18 -56 -21 -62 -4 -5 -8 -19
-9 -29 -2 -11 -11 -47 -19 -80 -18 -68 -23 -90 -30 -126 -2 -14 -7 -38 -11
-55 -3 -16 -7 -43 -9 -60 -1 -16 -5 -43 -9 -60 -25 -126 -25 -648 0 -745 2 -8
7 -35 10 -60 4 -25 13 -75 21 -112 7 -37 16 -82 19 -100 3 -17 8 -35 11 -40 3
-4 7 -16 9 -25 26 -119 114 -346 199 -508 67 -128 184 -315 198 -315 4 0 8 -6
8 -12 1 -12 115 -154 184 -228 53 -56 188 -183 226 -211 19 -15 47 -37 61 -50
14 -13 33 -28 41 -34 9 -5 44 -30 79 -55 215 -152 497 -291 744 -367 91 -28
246 -69 290 -76 17 -3 55 -10 85 -16 30 -7 78 -14 105 -17 28 -3 61 -8 75 -10
162 -28 651 -22 810 11 14 2 41 7 60 10 78 12 168 30 253 51 4 1 8 2 10 4 1 1
9 3 17 5 41 10 58 15 90 25 19 6 45 13 57 16 12 2 89 31 171 64 239 95 427
200 637 353 162 118 349 302 485 477 19 25 38 47 42 48 5 2 8 7 8 12 0 7 80
130 107 165 24 30 131 241 177 350 28 64 89 240 101 291 3 10 12 46 20 79 9
33 18 71 20 85 2 14 7 36 10 50 5 24 8 40 21 128 14 100 26 265 27 377 0 85
-12 306 -19 337 -3 13 -7 40 -9 62 -34 298 -177 713 -329 951 -20 30 -36 57
-36 59 0 8 -108 162 -153 219 -49 60 -126 146 -207 227 -76 76 -111 107 -242
213 -155 125 -466 299 -667 374 -138 50 -327 108 -390 119 -14 3 -34 7 -43 10
-57 17 -256 47 -393 60 -68 6 -443 13 -448 8z m308 -1067 c73 -5 217 -31 234
-42 4 -2 23 -7 42 -10 65 -11 339 -128 359 -154 3 -3 18 -13 33 -20 15 -8 45
-30 67 -48 21 -18 41 -33 44 -33 9 0 66 -52 147 -133 116 -116 213 -258 289
-419 37 -81 95 -248 103 -298 2 -14 7 -32 10 -40 3 -8 12 -60 20 -115 13 -95
16 -431 4 -481 -3 -12 -8 -39 -11 -60 -13 -85 -54 -243 -78 -301 -6 -15 -12
-30 -12 -33 -5 -24 -103 -218 -122 -241 -8 -8 -14 -19 -14 -23 0 -30 -203
-260 -306 -347 -146 -123 -459 -276 -604 -294 -8 -1 -40 -7 -70 -13 -77 -17
-129 -21 -250 -22 -184 -1 -283 13 -465 65 -5 1 -25 6 -42 10 -18 4 -33 11
-33 16 0 5 -3 9 -7 8 -30 -4 -192 77 -308 155 -115 78 -291 254 -373 373 -34
50 -62 96 -62 101 0 6 -3 12 -7 14 -9 3 -83 151 -83 165 0 4 -6 20 -14 34 -7
14 -17 39 -21 55 -4 16 -10 34 -11 39 -34 106 -59 224 -70 330 -14 129 -7 395
12 500 3 18 6 30 19 90 2 11 8 35 14 53 5 18 9 33 9 35 -3 6 48 151 73 205 16
35 29 65 29 67 0 9 84 150 91 153 5 2 9 10 9 18 0 8 5 14 10 14 6 0 10 5 10
10 0 13 0 13 88 115 246 286 585 463 956 500 27 2 50 6 52 7 4 4 147 1 239 -5z"/>
<path d="M19268 18625 c-2 -2 -46 -6 -98 -9 -52 -4 -104 -9 -115 -11 -11 -3
-40 -7 -65 -10 -25 -2 -55 -7 -66 -9 -12 -2 -37 -7 -55 -10 -19 -3 -45 -8 -59
-11 -14 -4 -36 -8 -50 -11 -14 -2 -59 -13 -100 -24 -41 -11 -82 -22 -91 -24
-46 -12 -237 -82 -317 -116 -90 -38 -293 -142 -331 -169 -16 -12 -34 -21 -39
-21 -6 0 -12 -3 -14 -7 -1 -5 -23 -21 -48 -37 -66 -43 -219 -159 -265 -201
-86 -79 -173 -164 -227 -226 -32 -35 -64 -71 -71 -79 -27 -30 -105 -137 -143
-195 -21 -33 -41 -62 -44 -65 -22 -20 -179 -324 -168 -325 2 -1 -4 -12 -13
-25 -12 -20 -70 -166 -74 -190 -1 -3 -9 -30 -19 -61 -9 -31 -18 -66 -21 -77
-2 -11 -9 -30 -15 -41 -6 -12 -9 -21 -6 -21 2 0 0 -17 -5 -37 -16 -65 -17 -70
-23 -104 -3 -19 -7 -43 -10 -54 -2 -11 -7 -45 -11 -75 -3 -30 -9 -68 -11 -84
-24 -150 -16 -528 15 -717 40 -244 108 -476 195 -664 20 -43 36 -84 36 -91 0
-8 4 -14 9 -14 5 0 14 -12 20 -27 10 -27 58 -117 73 -138 4 -5 39 -57 77 -115
152 -230 370 -457 606 -629 39 -28 75 -54 80 -59 36 -28 268 -159 357 -201
147 -69 383 -155 481 -176 10 -2 27 -7 37 -10 21 -7 34 -9 140 -31 41 -9 89
-17 105 -20 17 -2 46 -6 65 -9 19 -3 49 -7 65 -9 165 -25 605 -26 745 -2 14 3
45 7 70 10 25 3 55 8 66 10 12 2 38 7 59 10 151 24 410 100 570 167 17 7 32
13 35 14 120 40 395 198 565 323 173 128 350 297 453 432 15 19 37 46 50 60
12 14 22 28 22 32 0 3 6 13 13 20 22 24 97 136 97 146 0 6 4 12 9 14 20 8 163
291 206 409 42 116 71 206 91 284 13 52 46 208 50 240 3 22 7 51 9 65 21 119
28 531 12 655 -4 33 -9 78 -12 100 -2 22 -6 47 -9 55 -3 8 -7 33 -10 55 -2 22
-7 47 -10 55 -3 8 -8 29 -10 45 -7 47 -33 148 -62 238 -107 333 -295 661 -519
906 -96 106 -260 261 -274 261 -5 0 -11 4 -13 8 -12 30 -277 210 -418 284 -47
25 -94 50 -105 56 -11 5 -36 17 -55 25 -19 8 -55 24 -80 35 -25 11 -58 24 -73
27 -15 4 -30 11 -33 16 -3 5 -11 9 -19 9 -8 0 -24 4 -37 9 -13 5 -25 9 -28 10
-3 0 -38 12 -77 25 -40 14 -73 22 -73 19 0 -3 -7 0 -15 7 -8 7 -15 10 -15 7 0
-3 -15 -1 -32 4 -37 11 -60 17 -102 25 -16 2 -32 7 -35 9 -4 2 -27 6 -51 10
-25 3 -58 9 -75 11 -56 10 -146 22 -230 30 -66 6 -432 13 -437 9z m312 -1070
c63 -7 150 -21 160 -25 3 -1 18 -4 34 -6 114 -19 338 -117 472 -207 42 -28 84
-56 92 -62 8 -5 38 -30 65 -55 43 -39 75 -71 159 -161 96 -103 220 -325 279
-499 90 -270 111 -627 53 -890 -8 -36 -17 -76 -20 -90 -12 -60 -96 -290 -114
-315 -5 -5 -20 -32 -36 -60 -43 -79 -48 -88 -61 -104 -7 -9 -34 -45 -60 -81
-55 -73 -164 -186 -238 -245 -27 -22 -51 -43 -53 -47 -2 -5 -7 -8 -12 -8 -9 0
-105 -61 -128 -80 -7 -6 -27 -16 -45 -22 -17 -6 -34 -14 -37 -18 -11 -14 -218
-92 -281 -106 -87 -18 -178 -35 -218 -39 -64 -7 -279 -7 -321 0 -19 4 -46 8
-60 9 -56 8 -148 27 -195 42 -27 8 -57 17 -65 19 -21 4 -214 87 -220 94 -3 3
-25 17 -50 30 -43 24 -100 60 -110 71 -3 3 -21 17 -40 30 -99 69 -242 222
-325 350 -74 114 -162 294 -181 369 -2 9 -15 59 -29 111 -14 52 -27 111 -30
130 -2 19 -8 60 -12 90 -9 69 -10 345 -1 425 4 33 12 85 18 115 6 30 14 68 17
85 9 54 73 235 110 313 40 85 117 216 146 247 10 11 27 35 38 53 12 17 25 32
30 32 5 0 9 4 9 9 0 23 244 241 269 241 6 0 11 4 11 8 0 7 126 85 140 87 3 0
21 9 40 20 19 11 37 20 40 20 5 2 18 7 80 32 108 44 247 75 400 89 30 3 55 6
56 7 4 4 179 -2 224 -8z"/>
<path d="M24527 18624 c-1 -1 -33 -5 -70 -9 -37 -3 -78 -8 -90 -11 -12 -3 -33
-7 -47 -9 -113 -19 -321 -79 -381 -111 -15 -7 -29 -10 -33 -7 -3 4 -6 1 -6 -5
0 -7 -9 -12 -20 -12 -11 0 -20 -5 -20 -12 0 -6 -3 -9 -6 -5 -6 5 -75 -29 -166
-82 -51 -30 -153 -95 -158 -100 -3 -4 -29 -24 -57 -46 -29 -21 -53 -43 -53
-47 0 -4 -5 -8 -11 -8 -22 0 -225 -215 -302 -320 -42 -58 -80 -109 -84 -115
-5 -5 -14 -21 -21 -35 -7 -14 -30 -57 -52 -97 -21 -39 -55 -111 -75 -160 -21
-48 -41 -97 -46 -108 -9 -20 -47 -157 -54 -195 -2 -12 -6 -29 -9 -38 -7 -23
-18 -102 -32 -217 -3 -27 -7 -732 -8 -1565 -2 -1612 -3 -1568 45 -1663 29 -55
101 -123 167 -154 l57 -28 305 0 305 0 58 27 c90 42 136 88 180 178 l32 65 1
1495 c1 822 4 1518 8 1546 21 184 151 369 346 494 30 20 80 46 110 59 30 13
62 27 70 31 91 44 343 58 452 24 9 -3 26 -7 37 -9 79 -15 222 -103 301 -184
100 -104 169 -243 184 -376 3 -22 5 -726 6 -1565 0 -1515 0 -1526 21 -1580 19
-50 42 -90 79 -133 37 -44 158 -103 215 -106 97 -4 518 -1 545 4 84 14 184 85
234 163 56 90 55 58 56 1120 1 537 1 984 1 992 -3 534 1 1058 8 1096 32 162
153 340 295 432 23 15 43 30 46 33 14 18 160 82 237 105 106 31 241 38 346 18
66 -13 83 -17 142 -40 11 -4 23 -8 27 -8 4 -1 13 -7 20 -13 6 -7 20 -13 30
-13 10 0 18 -4 18 -9 0 -5 9 -13 21 -16 72 -23 217 -192 267 -310 53 -128 51
-60 52 -1700 0 -837 4 -1534 9 -1550 31 -108 103 -195 199 -242 l57 -28 290
-2 c293 -3 294 -3 398 33 9 4 17 10 17 15 0 5 6 9 13 9 18 0 83 65 112 111 47
73 55 129 54 367 0 34 0 77 0 95 0 17 0 55 0 82 0 28 -1 67 0 88 0 20 0 62 0
92 0 30 0 63 0 73 1 24 0 107 -2 180 -1 34 2 62 6 62 5 0 6 4 3 8 -3 5 -5 24
-6 43 -2 120 -2 148 -1 182 0 20 0 62 0 92 0 30 0 63 0 73 1 24 0 107 -2 180
-1 34 0 62 3 62 4 0 4 106 0 120 -5 13 1 224 6 231 3 5 2 9 -3 9 -4 0 -8 27
-8 60 0 33 2 60 5 60 4 0 4 105 0 120 -1 3 -1 23 -1 45 1 22 1 47 1 55 0 8 1
53 1 100 0 47 0 92 0 100 -1 8 -1 44 0 80 0 36 0 72 -1 80 -2 49 2 145 7 153
3 6 1 7 -5 3 -9 -5 -9 0 -3 17 6 14 7 28 4 31 -8 7 -5 164 2 177 4 5 3 9 -2 9
-4 0 -9 35 -9 78 -1 42 -4 95 -8 117 -3 22 -8 60 -11 84 -12 96 -71 310 -115
416 -64 153 -187 365 -258 445 -18 19 -32 39 -32 43 0 14 -232 240 -290 283
-30 22 -71 52 -91 66 -54 40 -177 110 -254 146 -38 18 -78 37 -87 42 -10 6
-22 10 -27 10 -5 0 -26 7 -47 16 -22 9 -39 16 -39 14 0 -1 -13 4 -30 10 -16 7
-37 13 -45 16 -8 2 -49 12 -90 23 -41 11 -91 22 -110 25 -19 3 -46 8 -60 11
-124 25 -462 25 -605 -1 -100 -18 -189 -38 -250 -56 -38 -12 -76 -23 -83 -24
-8 -1 -21 -6 -30 -10 -9 -4 -19 -8 -22 -9 -3 -1 -18 -7 -35 -14 -16 -7 -46
-19 -65 -26 -70 -25 -328 -170 -384 -216 -6 -5 -48 -39 -94 -75 l-82 -66 -58
48 c-31 27 -59 51 -62 54 -42 47 -242 175 -365 235 -255 125 -480 176 -793
179 -79 1 -144 1 -145 0z"/>
<path d="M6130 18561 c0 -3 -15 -6 -32 -5 -26 1 -110 -14 -143 -25 -18 -6 -45
-16 -73 -27 -18 -7 -34 -12 -35 -11 -3 2 -74 -53 -102 -81 -83 -80 -130 -193
-151 -362 -4 -30 -7 -251 -7 -490 0 -416 1 -437 21 -481 11 -26 35 -57 54 -70
l33 -24 421 0 c454 0 450 0 502 54 35 35 44 67 47 166 1 51 9 105 17 126 24
55 73 104 130 130 l53 24 565 -1 c311 0 576 -2 590 -4 38 -7 79 -49 86 -87 7
-35 -20 -123 -37 -123 -5 0 -9 -5 -9 -10 0 -9 -23 -38 -65 -84 -6 -6 -51 -60
-100 -121 -49 -60 -92 -112 -95 -115 -3 -3 -23 -27 -45 -55 -22 -27 -47 -59
-57 -70 -9 -11 -33 -40 -53 -65 -20 -25 -44 -54 -53 -65 -35 -42 -118 -144
-147 -180 -16 -21 -35 -43 -40 -49 -6 -6 -39 -47 -75 -91 -64 -80 -72 -89
-100 -122 -8 -10 -48 -58 -88 -108 -81 -100 -78 -96 -147 -181 -28 -33 -66
-80 -85 -104 -19 -24 -39 -48 -45 -54 -5 -6 -27 -32 -48 -58 -21 -26 -43 -53
-50 -60 -7 -7 -30 -37 -52 -65 -21 -29 -43 -53 -47 -53 -4 0 -8 -5 -8 -10 0
-6 -12 -24 -27 -42 -16 -17 -37 -41 -48 -54 -11 -13 -31 -38 -45 -56 -14 -18
-32 -39 -40 -48 -8 -9 -34 -40 -57 -70 -23 -30 -53 -67 -65 -82 -23 -26 -62
-74 -288 -353 -67 -82 -137 -168 -156 -190 -133 -160 -250 -306 -270 -336 -26
-38 -63 -134 -70 -183 -5 -35 -6 -183 -1 -206 2 -8 7 -31 11 -50 17 -82 64
-168 126 -230 59 -60 115 -91 195 -108 58 -13 3666 -10 3725 3 91 20 112 26
180 58 79 36 178 133 210 203 20 48 54 151 66 209 4 17 8 223 9 460 3 356 1
434 -11 457 -8 15 -15 31 -16 35 -5 33 -68 98 -121 126 -40 21 -53 21 -437 21
-360 0 -397 -1 -422 -18 -48 -32 -66 -92 -72 -246 -3 -77 -19 -124 -59 -167
-11 -13 -26 -23 -33 -23 -7 0 -14 -4 -16 -10 -1 -5 -28 -15 -58 -23 -44 -12
-176 -15 -685 -15 -605 -1 -632 0 -671 19 -74 35 -107 135 -69 209 9 18 47 69
83 114 114 140 136 168 152 188 8 11 25 30 38 43 12 13 22 28 22 34 0 5 4 11
8 13 5 2 37 39 72 83 34 44 71 89 81 100 10 11 48 57 83 103 36 45 71 89 78
97 7 8 18 20 23 27 52 67 133 166 147 181 10 10 18 21 18 25 0 4 11 20 26 35
14 15 100 121 191 235 91 114 172 214 180 222 7 8 64 78 125 155 62 77 116
142 120 143 5 2 8 8 8 13 0 6 10 20 23 33 12 13 34 39 49 57 15 19 79 99 143
179 64 80 129 160 143 179 15 19 32 39 37 45 6 6 65 78 130 161 150 188 148
185 160 199 29 32 174 215 194 244 26 38 68 137 75 178 2 16 5 29 6 29 4 0 10
93 11 170 1 44 -4 98 -10 120 -6 22 -10 44 -10 49 0 5 -3 12 -8 15 -4 3 -17
23 -28 44 -25 49 -97 121 -152 154 -103 60 20 56 -1835 58 -934 1 -1698 -1
-1698 -4z"/>
<path d="M30908 14865 c-2 -2 -19 -7 -38 -10 -85 -14 -243 -85 -292 -130 -15
-14 -29 -25 -32 -25 -7 0 -62 -56 -100 -103 -60 -74 -125 -210 -141 -293 -2
-10 -4 -19 -5 -19 -10 0 -14 -204 -6 -245 3 -14 8 -38 12 -55 7 -40 35 -117
47 -132 5 -7 6 -13 3 -13 -4 0 2 -13 13 -29 12 -16 21 -34 21 -40 0 -6 5 -11
10 -11 6 0 10 -5 10 -11 0 -19 82 -110 149 -165 93 -77 189 -122 326 -151 92
-20 319 0 372 33 12 8 31 14 43 14 11 0 20 5 20 10 0 6 6 10 13 10 41 0 210
141 264 220 126 186 165 373 121 580 -18 80 -77 219 -116 269 -28 37 -125 134
-161 161 -49 38 -149 87 -211 105 -30 9 -67 20 -81 24 -26 8 -233 13 -241 6z"/>
</g>
</svg>
