<?xml version="1.0" encoding="UTF-8"?>
<svg viewBox="0 0 100 17" xmlns="http://www.w3.org/2000/svg" width="100px" height="16.73px">
<path d="m41.68 13.482c-2.5692 0-4.7303-2.005-4.7303-4.9824 0-2.9774 2.1611-4.9824 4.7303-4.9824 2.5693 0 4.7623 2.037 4.7623 4.9824 0 2.9454-2.161 4.9824-4.7623 4.9824zm0-13.346c-4.8583 0-8.7402 3.4777-8.7402 8.364 0 4.8863 3.8859 8.364 8.7402 8.364s8.7722-3.4456 8.7722-8.364c0-4.9184-3.8858-8.364-8.7722-8.364z" fill="#fff"/>
<path d="m60.897 13.482c-2.5692 0-4.7302-2.005-4.7302-4.9824 0-2.9774 2.161-4.9824 4.7302-4.9824 2.5693 0 4.7623 2.037 4.7623 4.9824 0 2.9454-2.161 4.9824-4.7623 4.9824zm0-13.346c-4.8583 0-8.7402 3.4777-8.7402 8.364 0 4.8863 3.8859 8.364 8.7402 8.364 4.8544 0 8.7722-3.4456 8.7722-8.364 0-4.9184-3.8858-8.364-8.7722-8.364z" fill="#fff"/>
<path d="m97.699 12.074c-1.2726 0-2.3011 1.0325-2.3011 2.3011s1.0285 2.3011 2.3011 2.3011 2.3011-1.0285 2.3011-2.3011-1.0285-2.3011-2.3011-2.3011z" fill="#38D430"/>
<path d="m10.949 6.499h-6.5432c-0.10405 0-0.18409-0.13206-0.16008-0.23611 0.48823-1.8849 1.9009-3.0415 3.8699-3.0415 1.5808 0 2.8654 1.2606 2.9974 3.0775 8e-3 0.09205-0.072 0.2001-0.164 0.2001zm-2.8334-6.3631c-4.7943 0-8.1159 3.4457-8.1159 8.364 0 4.5422 3.2896 8.364 8.5841 8.364 2.7413 0 4.7543-1.1445 5.7388-1.8569 0.4002-0.2921 0.5082-0.8404 0.2561-1.2646l-0.6843-1.1405c-0.2802-0.4643-0.8845-0.6043-1.3367-0.3082-0.7924 0.5203-2.117 1.1886-3.6897 1.1886-2.3531 0-4.3741-1.4887-4.7663-4.17-0.01201-0.09605 0.06403-0.30014 0.16008-0.30014h9.6246c0.7283 0 1.3246-0.48023 1.3126-1.2126v-0.12806c-4e-3 -4.226-2.5092-7.5356-7.0834-7.5356z" fill="#fff"/>
<path d="m30.575 11.298h-2.2811c-0.3682 0-0.4162 0.4282-0.4162 0.7924v0.1041c0 0.4682-0.4002 0.7003-0.8364 0.7003h-3.7898c-0.4122 0-0.6444-0.4842-0.3882-0.8084 0.148-0.1841 0.3201-0.4042 0.5122-0.6403l6.7553-8.376c0.3281-0.40019 0.4041-0.87241 0.4041-1.3887 0-0.75636-0.6162-1.3527-1.3726-1.3527h-10.141c-1.5047 0-2.109 0.6203-2.109 2.093v2.2451c0 0.38819 0.1321 0.69233 0.5203 0.69233h2.3611c0.3121 0 0.5443-0.24411 0.5443-0.55626v-0.27614c0-0.47222 0.4041-0.76836 0.8764-0.76836h3.2815c0.2962 0 0.7084 0.27613 0.1841 0.8524-0.2241 0.24812-7.4315 9.0884-7.4315 9.0884-0.2441 0.3001-0.3362 0.6523-0.3362 1.0405v0.016c0 0.8364 0.4922 1.5687 1.3326 1.5687h10.993c1.4727 0 2.073-0.6843 2.073-2.185v-2.029c0-0.3802-0.3521-0.8124-0.7323-0.8124" fill="#fff"/>
<path d="m85.893 0.13599c-1.6327 0-3.1495 0.63631-4.282 1.6608-1.0805-1.0325-2.4132-1.6608-4.062-1.6608-3.4216 0-6.1749 2.7853-6.1749 6.0869v9.1884c0 0.6323 0.5122 1.1446 1.1445 1.1446h1.3727c0.6283 0 1.1405-0.5163 1.1405-1.1446v-9.1884c0-1.1566 1.2606-2.2091 2.5372-2.2091 1.2767 0 2.2651 0.94845 2.2651 2.157v9.3405c0 0.6323 0.5123 1.1445 1.1406 1.1445h1.3726c0.6283 0 1.1406-0.5122 1.1406-1.1445v-9.2885c0-1.1566 1.2606-2.2091 2.5332-2.2091s2.2651 0.94845 2.2651 2.157v9.2404c0 0.6323 0.5122 1.1446 1.1405 1.1446h1.3727c0.6283 0 1.1405-0.5163 1.1405-1.1446v-9.2404c0-3.3856-2.6572-6.0349-6.0429-6.0349" fill="#fff"/>
</svg>